<?xml version="1.0" encoding="utf-8"?>
<!-- Generator: Adobe Illustrator 24.1.1, SVG Export Plug-In . SVG Version: 6.00 Build 0)  -->
<svg version="1.1" id="Layer_1" xmlns="http://www.w3.org/2000/svg" xmlns:xlink="http://www.w3.org/1999/xlink" x="0px" y="0px"
	 viewBox="0 0 640 940" style="enable-background:new 0 0 640 940;" xml:space="preserve">
<style type="text/css">
	.st0{fill:#F4F4F4;}
	.st1{fill:#8DA290;}
	.st2{fill:#F3F4F3;}
	.st3{fill:#EEF2ED;}
	.st4{fill:#F2F4F2;}
	.st5{fill:#FCFDFC;}
	.st6{fill:#FBFDFA;}
	.st7{fill:#F1F3F1;}
	.st8{fill:#F0F3F0;}
	.st9{fill:#EAF0E9;}
</style>
<g>
	<path class="st0" d="M317.79,259.21c0.65,2.68,3.29,3.56,4.93,5.34c7.18,7.78,4.76,20-5.16,23.78
		c-22.31,8.5-44.72,16.74-67.09,25.08c-11.81,4.4-23.63,8.76-35.43,13.19c-7.69,2.88-15.32-0.88-18.53-6.31
		c-4.07-6.87-1.69-17.5,5.64-20.61c11.59-4.91,23.49-9.11,35.3-13.5c21.6-8.03,43.23-15.99,64.86-23.97c1.54-0.57,3.31-0.85,3.49-3
		C309.79,259.21,313.79,259.21,317.79,259.21z"/>
	<path class="st0" d="M318.79,587.21c-2.15-3.67-6.46-5.87-6.17-11.27c0.27-5.01,2.03-8.2,6.65-9.94
		c10.4-3.92,20.77-7.93,31.19-11.8c16.95-6.3,33.96-12.47,50.9-18.82c6.47-2.42,12.74-0.68,15.09,4.54
		c2.78,6.16,0.62,12.23-6.31,15.01c-13.24,5.32-26.68,10.13-40.07,15.07c-13.07,4.83-26.19,9.55-39.27,14.35
		c-1.39,0.51-2.93,0.95-3.02,2.87C324.78,587.21,321.79,587.21,318.79,587.21z"/>
	<path class="st0" d="M447.8,464.17c-0.47,0.14-1.24,0.15-1.37,0.45c-3.91,8.6-12.36,10.52-20.01,13.48
		c-10.99,4.24-22.1,8.17-33.13,12.32c-10.16,3.83-19.19-0.85-21.61-11.3c-1.55-6.67,2.4-13.82,9.44-16.51
		c11.78-4.51,23.62-8.84,35.45-13.22c3.74-1.38,7.4-3.22,11.27-3.92c6.75-1.23,13.88-0.26,17.88,8.95c0.46,1.05,0.97,1.68,2.09,1.76
		C447.8,458.84,447.8,461.51,447.8,464.17z"/>
	<path class="st0" d="M151.8,323.25c1.92-0.03,2.2-1.72,2.98-2.93c3.52-5.46,10.62-8.4,16.31-6.8c6.25,1.76,11.64,8.74,11.68,15.13
		c0.04,5.68-4.97,12.2-10.75,13.97c-6.61,2.03-13.4-0.5-17.24-6.45c-0.78-1.21-1.06-2.9-2.99-2.93
		C151.8,329.92,151.8,326.59,151.8,323.25z"/>
	<path class="st1" d="M235.94,384.2c-3.74-14.93-3.35-15.59,11.62-21.13c37.19-13.77,74.38-27.57,111.56-41.37
		c9.54-3.54,13.55-1.66,17.14,7.95c4.7,12.58,9.45,25.14,14.17,37.71c3.43,9.28,6.86,18.57,10.29,27.85
		c-0.1,7.71-1.73,10.06-9.2,12.83c-38.9,14.42-77.81,28.82-116.73,43.21c-8.95,3.31-12.4,1.83-16.56-6.91
		c-3.35-9.08-6.7-18.17-10.06-27.26c-2.46-6.62-4.92-13.25-7.37-19.87C239.65,392.7,238.13,388.32,235.94,384.2z M380.77,371.22
		c-4.36-12.18-8.71-24.36-13.4-37.49c-3.39,5.14-6.13,9.27-8.86,13.4c-3.27,3.74-6.01,7.85-8.54,12.12
		c-4.09,5.71-8.18,11.43-12.52,17.48c9.22,2.82,17.73,5.41,26.23,8.01c8.11,2.62,16.23,5.23,25.59,8.25
		C386.11,384.9,383.44,378.06,380.77,371.22z M259.71,418.24c2.18,6.34,4.37,12.67,6.56,19.04c2.03-0.74,2.42-2,2.84-3.24
		c8.2-13.01,16.37-26.05,24.63-39.02c1.16-1.83,1.25-2.9-1.11-3.45c-6.27-1.46-12.53-2.96-18.79-4.44
		c-8.38-2.29-16.76-4.6-25.15-6.85c-2.51-0.67-3.43,0.1-2.36,2.73c1.8,4.4,3.49,8.84,5.22,13.27
		C253.84,403.76,256.52,411.09,259.71,418.24z M353.3,334.59c-32.05,11.82-64.1,23.65-96.15,35.47c-0.78,0.29-1.61,0.54-1.19,1.97
		c13.17,3.32,26.51,6.68,39.84,10.04c6.23,1.68,12.47,3.35,18.69,5.05c2.13,0.58,3.69,0.3,5.04-1.79
		c3.67-5.7,7.58-11.25,11.39-16.86c8.03-10.76,15.7-21.78,23.06-33.01c0.15-0.32,0.3-0.64,0.46-0.95
		C354.06,334.53,353.68,334.56,353.3,334.59z M366.73,396.41c-10.44-3.36-20.93-6.59-31.3-10.15c-3.18-1.09-4.65-0.11-6.4,2.44
		c-8.11,11.84-5.37,10.88-19.5,7.2c-3.2-0.83-4.72-0.27-6.39,2.47c-7.62,12.51-15.45,24.88-23.18,37.32
		c-0.61,0.99-1.11,2.05-1.88,3.51c1.2-0.27,1.69-0.32,2.14-0.49c30.24-11.19,60.49-22.39,90.72-33.61c1.06-0.39,2.28-0.6,2.88-1.78
		c2.65-0.01,5.06-0.65,7.37-2.7C376.12,399.15,371.43,397.78,366.73,396.41z"/>
	<path class="st0" d="M233.44,542.13c-8.57-0.06-14.64-5.44-16.24-13.37c-1.1-5.46,3.31-13.34,9.21-15.59
		c14.56-5.55,29.21-10.87,43.83-16.28c6.22-2.3,12.39-4.76,18.68-6.86c7.81-2.61,16.07,1.66,18.84,9.46
		c2.66,7.49-0.97,15.73-8.65,18.65c-17.67,6.73-35.4,13.27-53.14,19.79C241.48,539.58,237.18,541.93,233.44,542.13z"/>
	<path class="st2" d="M248.18,417.09c3.35,9.09,6.7,18.17,10.06,27.26c-5.97,4.64-13.02,6.5-20.26,7.85c1-6.28-1.88-8.8-7.77-6.7
		c-4.96,1.78-9.89,3.66-14.82,5.53c-6.19,2.35-6.9,5.23-2.54,10.14c-3.37,3.57-12.03,2.25-15.97-2.54
		c-2.69-3.28-4.45-6.97-4.03-11.39c7.33-3.66,8.06-5.87,3.58-10.8c11.7-4.37,23.39-8.73,35.09-13.1
		C237.08,421.26,242.63,419.17,248.18,417.09z"/>
	<path class="st0" d="M400.73,395.21c-3.43-9.28-6.86-18.57-10.29-27.85c9.01-3.31,17.98-6.73,27.04-9.89
		c9.42-3.28,17.64,0.51,20.49,9.17c2.76,8.4-1.51,16.24-10.54,19.53c-7.46,2.72-14.91,5.5-22.32,8.36
		C403.65,395.11,402.22,395.2,400.73,395.21z"/>
	<path class="st1" d="M212.85,461.16c-4.36-4.91-3.65-7.78,2.54-10.14c4.93-1.87,9.85-3.75,14.82-5.53c5.89-2.11,8.77,0.41,7.77,6.7
		C230.12,456.64,221.92,460.11,212.85,461.16z"/>
	<path class="st1" d="M207.9,398.92c2.74,0.09,4.32,1.09,5.11,3.19c0.87,2.34,0.27,4.64-1.83,5.61c-4.33,2.02-8.85,3.72-13.42,5.13
		c-2.24,0.69-4.15-0.7-5.2-2.89c-1.12-2.32-0.42-4.53,1.53-5.69C198.51,401.65,203.49,400.3,207.9,398.92z"/>
	<path class="st1" d="M196.44,436.44c4.48,4.93,3.75,7.13-3.58,10.8c-2.03,0.62-4.03,1.42-6.1,1.83c-2.58,0.51-4.57-0.64-5.54-3.06
		c-0.91-2.24-0.36-4.56,1.77-5.59C187.22,438.38,191.39,435.83,196.44,436.44z"/>
	<path class="st3" d="M235.94,384.2c2.19,4.13,3.71,8.51,4.87,13.02c-4.63-1.35-6.33-4.94-6.91-9.26
		C233.7,386.37,233.47,384.47,235.94,384.2z"/>
	<path class="st4" d="M295.81,382.07c-13.33-3.36-26.67-6.72-39.84-10.04c-0.42-1.42,0.41-1.68,1.19-1.97
		c32.05-11.83,64.1-23.65,96.15-35.47c0.23,0.29,0.46,0.58,0.69,0.87c-7.36,11.23-15.03,22.25-23.06,33.01
		c-1.03-1.79-2.37-0.65-3.48-0.25c-9.51,3.44-18.99,6.93-28.47,10.45C297.42,379.26,295.86,379.99,295.81,382.07z"/>
	<path class="st5" d="M273.84,387.13c6.26,1.48,12.52,2.98,18.79,4.44c2.36,0.55,2.27,1.62,1.11,3.45
		c-8.26,12.98-16.43,26.01-24.63,39.02c-0.83-6.64-1.85-13.17-9.41-15.8c-3.19-7.15-5.87-14.49-8.15-21.98
		C259,393.26,267.05,391.73,273.84,387.13z"/>
	<path class="st5" d="M358.51,347.14c2.73-4.13,5.47-8.27,8.86-13.4c4.69,13.12,9.05,25.3,13.4,37.49c-2.15,0.76-4.36,1.4-6.45,2.31
		c-5.1,2.23-9.5,5.2-10.64,11.22c-8.5-2.6-17-5.19-26.23-8.01c4.34-6.06,8.43-11.77,12.52-17.48
		C358.34,357.52,361.42,353.14,358.51,347.14z"/>
	<path class="st6" d="M295.81,382.07c0.05-2.08,1.61-2.81,3.18-3.39c9.47-3.52,18.96-7.02,28.47-10.45c1.11-0.4,2.45-1.54,3.48,0.25
		c-3.81,5.61-7.72,11.16-11.39,16.86c-1.35,2.09-2.91,2.37-5.04,1.79C308.28,385.41,302.04,383.75,295.81,382.07z"/>
	<path class="st7" d="M363.68,384.75c1.14-6.02,5.54-8.99,10.64-11.22c2.09-0.91,4.3-1.55,6.45-2.31c2.67,6.84,5.34,13.68,8.5,21.78
		C379.91,389.98,371.79,387.37,363.68,384.75z"/>
	<path class="st8" d="M273.84,387.13c-6.79,4.6-14.84,6.14-22.29,9.14c-1.73-4.42-3.42-8.87-5.22-13.27
		c-1.08-2.63-0.15-3.4,2.36-2.73C257.08,382.53,265.46,384.84,273.84,387.13z"/>
	<path class="st3" d="M259.71,418.24c7.56,2.63,8.57,9.16,9.41,15.8c-0.42,1.24-0.81,2.5-2.84,3.24
		C264.08,430.92,261.89,424.58,259.71,418.24z"/>
	<path class="st3" d="M358.51,347.14c2.92,6-0.17,10.38-8.54,12.12C352.49,354.99,355.24,350.88,358.51,347.14z"/>
	<path class="st9" d="M373.83,403.33c-2.21-2.46-6.4-2.9-7.09-6.91c4.7,1.37,9.39,2.74,14.46,4.21
		C378.88,402.67,376.47,403.32,373.83,403.33z"/>
	<path class="st4" d="M353.3,334.59c0.38-0.03,0.76-0.06,1.14-0.09c-0.15,0.32-0.3,0.64-0.46,0.95
		C353.76,335.17,353.53,334.88,353.3,334.59z"/>
</g>
</svg>
